<svg width="34" height="34" viewBox="0 0 34 34" fill="none" xmlns="http://www.w3.org/2000/svg">
<g clip-path="url(#clip0_92_74)">
<path d="M5.98013 25.3998C7.75642 24.999 9.33442 24.6421 10.9792 24.2726C11.0815 24.7089 11.1483 24.999 11.2318 25.356C10.0504 25.6086 8.92113 25.8507 7.78982 26.0929C13.9327 27.3119 20.0485 27.3077 26.2019 26.0845C25.1958 25.8653 24.1918 25.6461 23.1335 25.4165C23.2108 25.0638 23.2734 24.7694 23.3652 24.3457C24.889 24.6797 26.3626 25.0011 28.0011 25.3602C26.6653 21.3419 25.3503 17.3883 24.0269 13.4055C23.5594 13.4493 23.1878 13.4848 22.7495 13.5245C22.6681 13.2134 22.5929 12.9275 22.5011 12.5726C22.8768 12.4536 23.1941 12.3534 23.6199 12.2198C22.9499 10.1762 22.2965 8.17856 21.6223 6.12036C21.9438 5.99303 22.2214 5.88448 22.4573 5.79055C22.5825 5.87196 22.6827 5.90327 22.689 5.9471C22.8685 7.18286 23.67 7.49806 24.8138 7.73185C26.7091 8.1222 28.5563 8.75887 30.3953 9.38301C30.8524 9.53748 31.1947 10.0405 31.8021 10.5687C32.2488 10.4372 33.0294 10.2075 33.9144 9.94661C33.9416 10.3683 33.9833 10.7002 33.9833 11.0321C33.9875 15.4512 33.9666 19.8681 34.0042 24.2872C34.0105 25.0784 33.7767 25.4979 33.0086 25.7046C31.9065 26.001 30.8252 26.3747 29.6898 26.7295C29.9423 28.1907 29.0448 28.9464 27.878 29.247C25.7364 29.8001 23.5656 30.3596 21.374 30.5662C16.8967 30.9879 12.4111 30.919 7.99646 29.8794C7.35775 29.7292 6.72738 29.5141 6.11789 29.2699C4.98867 28.8169 4.05773 28.1886 4.32073 26.7379C3.07879 26.3413 1.8765 26.0031 0.713879 25.5564C0.417482 25.4437 0.0542923 24.9949 0.052205 24.6985C0.0167209 19.8974 0.0355066 15.0984 0.0438558 10.2973C0.0438558 10.2305 0.0814272 10.1658 0.144046 9.96749C0.912172 10.1971 1.68656 10.4288 2.13115 10.5603C2.85962 10.0092 3.323 9.46024 3.90536 9.25567C5.6065 8.66284 7.34105 8.14934 9.09021 7.71515C10.6661 7.3248 10.6828 7.38743 11.4363 5.77176C11.7327 5.87404 12.0375 5.97841 12.3902 6.10157C11.7139 8.15977 11.0648 10.1345 10.3906 12.1822C10.7788 12.32 11.1232 12.439 11.5219 12.5789C11.5073 12.8648 11.4948 13.1675 11.476 13.5391C10.9896 13.4952 10.5513 13.4556 9.97939 13.4034C8.65814 17.357 7.33896 21.3189 5.98013 25.3998ZM25.3085 13.2447C25.2897 13.3846 25.2563 13.4597 25.2751 13.5203C25.941 15.566 26.6089 17.6096 27.2852 19.6531C27.8237 21.2813 28.3664 21.68 30.1343 21.7865C30.1343 18.6449 30.1343 15.5013 30.1343 12.2762C28.4582 12.6123 26.8719 12.9295 25.3085 13.2447ZM3.85735 12.2741C3.85735 15.5576 3.85735 18.695 3.85735 21.8366C5.47083 21.6759 6.63137 21.0809 6.82966 19.3505C6.85262 19.148 6.95907 18.9559 7.02378 18.7576C7.61657 16.952 8.20728 15.1464 8.82303 13.2698C7.1198 12.9295 5.53345 12.6102 3.85735 12.2741ZM16.9426 29.6582C20.251 29.6665 23.5364 29.4724 26.73 28.5164C27.2247 28.3681 27.7089 28.149 28.1514 27.886C28.3351 27.7753 28.3977 27.4622 28.5167 27.243C28.3059 27.1929 28.0951 27.099 27.8863 27.1011C27.6129 27.1032 27.3374 27.1762 27.0639 27.2263C22.7766 28.0154 18.458 28.3848 14.1081 28.0321C11.4843 27.8192 8.87521 27.4225 6.25565 27.1345C6.001 27.1073 5.72757 27.2618 5.46248 27.3328C5.61485 27.5394 5.72548 27.8254 5.93004 27.934C6.41638 28.1907 6.93611 28.4078 7.46211 28.5644C10.5555 29.4849 13.7407 29.6519 16.9426 29.6582ZM31.3137 11.9338C31.3137 15.8123 31.3137 19.6573 31.3137 23.5963C30.2825 23.2289 29.3433 22.8928 28.2266 22.4941C28.6231 23.6756 28.9425 24.6191 29.2806 25.6253C30.1949 25.3664 31.0131 25.0888 31.8501 24.9072C32.6287 24.7402 32.9 24.3603 32.8917 23.5441C32.8478 19.8619 32.875 16.1797 32.8687 12.4974C32.8687 12.1739 32.8207 11.8503 32.7894 11.4621C32.2196 11.6458 31.7958 11.7815 31.3137 11.9338ZM2.67385 23.6234C2.67385 19.9892 2.67385 16.5178 2.67385 13.0444C2.67385 11.7439 2.61749 11.6896 1.13969 11.627C1.13969 15.7601 1.12925 19.8911 1.16473 24.02C1.16682 24.2705 1.46948 24.6525 1.71578 24.7402C2.68011 25.0825 3.67993 25.3289 4.72775 25.6294C5.07633 24.569 5.39151 23.613 5.77349 22.4545C4.61921 22.8907 3.72168 23.2289 2.67385 23.6234ZM24.8013 12.201C26.5066 11.8483 28.1326 11.5205 29.7545 11.1636C29.9194 11.1281 30.1928 10.8734 30.1698 10.8087C30.1009 10.6125 29.9402 10.362 29.7607 10.3056C27.7903 9.68777 25.8116 9.1012 23.5635 8.42488C24.0227 9.8318 24.3755 10.9047 24.8013 12.201ZM10.328 8.77348C10.2612 8.68789 10.1923 8.60231 10.1255 8.51672C8.2031 9.09285 6.27653 9.65855 4.36248 10.2597C4.14331 10.3286 3.98467 10.5958 3.79682 10.7691C3.93667 10.9006 4.05564 11.1177 4.21636 11.1531C5.70878 11.4767 7.20538 11.7898 8.71032 12.0445C8.90235 12.0779 9.27598 11.8169 9.35738 11.6082C9.72266 10.6814 10.0128 9.72117 10.328 8.77348Z" fill="#B40B0B"/>
<path d="M17.0887 25.9655C16.8695 25.6942 16.7276 25.5773 16.6608 25.427C16.116 24.2016 15.231 23.7528 13.8617 23.851C12.5425 23.9449 11.7097 23.0473 11.6784 21.7218C11.6366 19.8097 11.6366 17.8955 11.6805 15.9834C11.7118 14.6705 12.5384 13.8334 13.8638 13.8021C15.949 13.752 18.0384 13.7541 20.1236 13.8021C21.4532 13.8334 22.284 14.6642 22.3153 15.973C22.3612 17.8851 22.3549 19.7993 22.3173 21.7113C22.2965 22.874 21.5868 23.8468 20.5578 23.8113C18.8942 23.7528 17.6543 24.1849 17.0887 25.9655ZM16.978 24.1954C17.4289 22.7112 18.3327 22.7237 19.2636 22.7905C19.4369 22.8031 19.6101 22.7926 19.7834 22.7864C20.9001 22.7467 21.2111 22.4545 21.2194 21.3565C21.234 19.6928 21.232 18.027 21.2173 16.3634C21.209 15.2528 20.8458 14.9001 19.6936 14.8917C17.8902 14.8771 16.0868 14.8771 14.2833 14.8917C13.1061 14.9022 12.7763 15.2591 12.77 16.4803C12.7617 18.0062 12.7659 19.5321 12.768 21.058C12.77 22.5609 12.9934 22.7801 14.5338 22.7905C15.4919 22.7989 16.5501 22.5359 16.978 24.1954Z" fill="#B40B0B"/>
<path d="M3.26659 30.6664C3.99297 30.7081 4.51688 30.7019 5.02618 30.777C5.90076 30.9044 6.41006 31.468 6.42676 32.328C6.44345 33.1901 5.94459 33.8393 5.07836 33.9103C3.87399 34.0105 2.65083 34.0125 1.44437 33.9249C0.517614 33.8581 0.0625831 33.1755 0.0291863 32.2737C-0.00629775 31.2676 -0.0167342 30.2593 0.0291863 29.2553C0.0751069 28.245 0.774352 27.554 1.64684 27.554C2.52142 27.554 3.18727 28.2429 3.25824 29.2574C3.29163 29.6978 3.26659 30.1425 3.26659 30.6664ZM2.14571 31.8541C2.14571 30.9211 2.19163 30.1905 2.12275 29.4724C2.0977 29.2052 1.80548 28.961 1.63432 28.7063C1.47151 28.9714 1.18972 29.2261 1.16885 29.5016C1.10623 30.3637 1.08118 31.2384 1.1772 32.0942C1.20851 32.376 1.62597 32.8039 1.90358 32.8352C2.75937 32.9333 3.63395 32.9125 4.496 32.8498C4.7757 32.829 5.03661 32.5451 5.30379 32.3802C5.01783 32.2048 4.74439 31.9084 4.44382 31.875C3.73205 31.802 3.00776 31.8541 2.14571 31.8541Z" fill="#B40B0B"/>
<path d="M3.33157 3.27316C3.30235 3.89521 3.30235 4.37323 3.25434 4.84708C3.15833 5.79686 2.49457 6.44605 1.65339 6.44813C0.814292 6.45022 0.100436 5.80312 0.0461666 4.85543C-0.0143651 3.78249 -0.0101905 2.70329 0.0461666 1.63035C0.0962617 0.665963 0.68488 0.0919204 1.64712 0.0418222C2.68451 -0.0124509 3.73025 -0.0124509 4.76763 0.0376473C5.77789 0.0856581 6.45835 0.799558 6.44374 1.67628C6.42912 2.55091 5.7424 3.19801 4.71963 3.26898C4.31052 3.29821 3.89306 3.27316 3.33157 3.27316ZM2.14181 2.14804C3.06649 2.14804 3.82209 2.18561 4.57352 2.12716C4.82399 2.10837 5.05568 1.84953 5.29572 1.69924C5.05568 1.51137 4.82608 1.18156 4.57143 1.16277C3.67598 1.09597 2.768 1.08554 1.87464 1.16903C1.61164 1.19617 1.19836 1.58234 1.17539 1.83075C1.09399 2.75965 1.11486 3.70108 1.17331 4.63207C1.18792 4.86378 1.48849 5.07461 1.65756 5.29587C1.81828 5.06835 2.09798 4.84916 2.11885 4.60911C2.17939 3.85764 2.14181 3.09781 2.14181 2.14804Z" fill="#B40B0B"/>
<path d="M30.6645 30.7353C30.7021 30.0381 30.6979 29.5204 30.7647 29.0111C30.8795 28.1364 31.4264 27.648 32.2863 27.5645C33.0816 27.4873 33.8602 28.1093 33.9228 28.9881C34.0063 30.1612 34.0042 31.3469 33.9269 32.52C33.8706 33.3905 33.2715 33.9061 32.4074 33.9541C31.3345 34.0105 30.2554 34.0167 29.1825 33.9624C28.2265 33.9144 27.5711 33.2277 27.5502 32.3885C27.5273 31.5097 28.2036 30.823 29.2159 30.7416C29.6563 30.7061 30.1051 30.7353 30.6645 30.7353ZM31.848 31.8541C30.9943 31.8541 30.2721 31.8041 29.5624 31.8771C29.2597 31.9084 28.9821 32.2007 28.6941 32.376C28.9947 32.543 29.2869 32.8248 29.6 32.8519C30.3911 32.9208 31.1926 32.8645 31.9899 32.877C32.5994 32.8853 32.8791 32.6056 32.8708 31.9961C32.8582 31.1987 32.9146 30.3971 32.8457 29.606C32.8186 29.2929 32.5368 29.0006 32.3698 28.7C32.1966 28.9881 31.9023 29.2637 31.871 29.5663C31.7979 30.2761 31.848 31.0004 31.848 31.8541Z" fill="#B40B0B"/>
<path d="M30.7293 3.33571C30.1031 3.30649 29.623 3.30858 29.1492 3.25848C28.1974 3.15828 27.5503 2.49448 27.5482 1.65325C27.5482 0.814101 28.1953 0.100201 29.1429 0.0480157C30.2158 -0.0125196 31.2949 -0.0125196 32.3678 0.0459283C33.3342 0.098114 33.904 0.690943 33.9562 1.65325C34.0105 2.6907 34.0105 3.7365 33.9604 4.77604C33.9124 5.78635 33.1964 6.46685 32.3219 6.45224C31.4452 6.43763 30.8023 5.75086 30.7334 4.72594C30.7063 4.31054 30.7293 3.89514 30.7293 3.33571ZM31.8501 2.15005C31.8501 3.04347 31.8063 3.79912 31.8731 4.54642C31.8981 4.81361 32.1966 5.05366 32.3699 5.30833C32.5327 5.07454 32.8228 4.8491 32.8395 4.60695C32.8959 3.70936 32.923 2.79924 32.8291 1.90791C32.7999 1.6282 32.3699 1.20654 32.086 1.17523C31.2302 1.07712 30.3535 1.10008 29.4915 1.16061C29.216 1.1794 28.9571 1.46955 28.6921 1.63446C28.9467 1.80772 29.1909 2.10204 29.4581 2.12709C30.2054 2.19389 30.961 2.15005 31.8501 2.15005Z" fill="#B40B0B"/>
<path d="M14.4003 6.4752C14.3627 5.96587 14.3251 5.45654 14.2813 4.86162C13.6238 4.86162 13.0122 4.86162 12.6866 4.86162C12.1815 3.93063 11.7661 3.21047 11.3946 2.46943C11.0126 1.70752 11.0794 0.981098 11.7536 0.407055C12.386 -0.131501 13.3441 -0.050091 13.9202 0.546913C14.5151 1.16479 14.5339 2.03942 13.964 2.7074C13.7407 2.96833 13.5111 3.22508 13.1228 3.66553C14.0308 3.71145 14.6674 3.74485 15.4251 3.78242C15.4251 4.6988 15.4251 5.58387 15.4251 6.47103L15.4356 6.4585C15.0828 6.45642 14.7322 6.45642 14.3794 6.45433L14.4003 6.4752Z" fill="#B40B0B"/>
<path d="M18.5707 6.46895C18.5707 5.60893 18.5707 4.74891 18.5707 3.77826C19.2616 3.77826 19.9003 3.77826 20.8375 3.77826C20.5161 3.32946 20.37 3.06854 20.1717 2.85771C19.4704 2.10832 19.4265 1.22116 20.0778 0.544837C20.7081 -0.110615 21.7747 -0.112702 22.4009 0.540662C23.0021 1.16898 22.881 2.14381 22.3091 2.88902C21.9313 3.38165 21.7873 4.0538 21.4742 4.79484C21.0463 4.8178 20.4055 4.85329 19.7167 4.88877C19.6749 5.45446 19.6373 5.9638 19.5998 6.47313L19.6186 6.45225C19.2658 6.45434 18.9151 6.45434 18.5624 6.45643L18.5707 6.46895Z" fill="#B40B0B"/>
<path d="M16.45 6.42929C16.45 5.80515 16.4395 5.1831 16.452 4.55896C16.4667 3.8388 16.4729 3.20213 15.7904 2.64687C15.1454 2.12293 15.2644 1.07713 15.8801 0.513525C16.523 -0.0772167 17.264 -0.146102 17.9591 0.384105C18.6479 0.910136 18.9693 1.79729 18.364 2.37551C17.3141 3.37956 17.6001 4.54643 17.552 5.70287C17.5416 5.94501 17.55 6.18715 17.55 6.42929L17.5124 6.47104C17.1722 6.47104 16.8298 6.47104 16.4896 6.47104L16.45 6.42929Z" fill="#B40B0B"/>
<path d="M18.5853 8.57097C18.5853 8.87782 18.5853 9.18676 18.5853 9.56041C18.2409 9.58129 17.9445 9.59799 17.4999 9.62303C17.4999 9.2306 17.4999 8.8987 17.4999 8.56888L17.5458 8.52087C17.8777 8.52296 18.2116 8.52505 18.5435 8.52505L18.5853 8.57097Z" fill="#B40B0B"/>
<path d="M17.5 8.571C17.166 8.571 16.8341 8.571 16.5002 8.571L16.4521 8.52507C16.4542 8.19317 16.4542 7.86127 16.4563 7.52728L16.5085 7.4751C16.8362 7.4751 17.1618 7.4751 17.4895 7.4751L17.5417 7.52728C17.5438 7.85918 17.5438 8.19108 17.5459 8.52507L17.5 8.571Z" fill="#B40B0B"/>
<path d="M15.4105 8.56888C15.112 8.56888 14.8135 8.56888 14.394 8.56888C14.394 8.19315 14.394 7.84664 14.394 7.50012L14.3856 7.50847C14.7196 7.49177 15.0515 7.47507 15.3854 7.45837C15.4105 7.48342 15.4355 7.50847 15.4627 7.53352C15.4606 7.86542 15.4564 8.19732 15.4543 8.52922L15.4105 8.56888Z" fill="#B40B0B"/>
<path d="M19.5956 6.4752C19.9045 6.45223 20.2113 6.42719 20.6392 6.39587C20.658 6.76744 20.6747 7.08681 20.6956 7.50221C20.2719 7.50221 19.9358 7.50221 19.6018 7.50221L19.6102 7.51056C19.6123 7.15778 19.6123 6.8071 19.6144 6.45432C19.6144 6.45223 19.5956 6.4752 19.5956 6.4752Z" fill="#B40B0B"/>
<path d="M17.5479 6.42929C17.8882 6.44182 18.2305 6.45643 18.5707 6.46895L18.5603 6.45643C18.577 6.79042 18.5937 7.12232 18.6104 7.4563C18.5853 7.48135 18.5603 7.5064 18.5352 7.53354C18.2034 7.53145 17.8736 7.52936 17.5417 7.52519L17.4895 7.473C17.4958 7.13902 17.5041 6.80503 17.5104 6.47104L17.5479 6.42929Z" fill="#B40B0B"/>
<path d="M15.4252 6.46895C15.7654 6.45643 16.1077 6.44182 16.4479 6.42929L16.4855 6.47104C16.4918 6.80503 16.498 7.13902 16.5064 7.473L16.4542 7.52519C16.1223 7.52728 15.7925 7.52936 15.4607 7.53145C15.4356 7.5064 15.4106 7.48135 15.3834 7.4563C15.4001 7.12232 15.4189 6.78833 15.4356 6.45434L15.4252 6.46895Z" fill="#B40B0B"/>
<path d="M14.394 7.50013C14.0829 7.50013 13.7719 7.50013 13.3774 7.50013C13.3774 7.16823 13.3774 6.84677 13.3774 6.42511C13.7344 6.44181 14.0663 6.45851 14.3981 6.47521L14.3793 6.45433C14.3814 6.80711 14.3814 7.1578 14.3835 7.51057L14.394 7.50013Z" fill="#B40B0B"/>
<path d="M16.5001 8.56888C16.5001 8.87782 16.5001 9.18468 16.5001 9.55833C16.1453 9.5792 15.8468 9.5959 15.4105 9.62095C15.4105 9.22642 15.4105 8.89661 15.4105 8.5668C15.4105 8.5668 15.4544 8.52505 15.4523 8.52505C15.7841 8.52296 16.1181 8.52087 16.45 8.52087L16.5001 8.56888Z" fill="#B40B0B"/>
<path d="M19.6019 7.50015C19.6019 7.8237 19.6019 8.14725 19.6019 8.571C19.2303 8.571 18.9089 8.571 18.5854 8.571L18.5436 8.52716C18.5415 8.19526 18.5374 7.86336 18.5353 7.53146C18.5603 7.50641 18.5854 7.48136 18.6104 7.45422C18.9444 7.47092 19.2784 7.48971 19.6102 7.50641L19.6019 7.50015Z" fill="#B40B0B"/>
<path d="M14.3293 18.146C15.2415 17.478 16.1432 16.8142 16.9865 16.1964C17.8548 16.8184 18.792 17.4885 19.6749 18.121C19.3368 19.125 18.9694 20.2188 18.6313 21.2291C17.5772 21.2291 16.4563 21.2291 15.3688 21.2291C15.039 20.2564 14.6717 19.1647 14.3293 18.146ZM16.2559 19.9683C16.7715 19.9683 17.2432 19.9683 17.7275 19.9683C17.8757 19.5007 18.0155 19.0561 18.1533 18.6178C17.7483 18.3214 17.3685 18.0458 16.9948 17.7703C16.6128 18.0542 16.235 18.336 15.851 18.6219C15.9783 19.0415 16.1035 19.4611 16.2559 19.9683Z" fill="#B40B0B"/>
</g>
<defs>
<clipPath id="clip0_92_74">
<rect width="34" height="34" fill="white"/>
</clipPath>
</defs>
</svg>
