<svg width="37" height="38" viewBox="0 0 37 38" fill="none" xmlns="http://www.w3.org/2000/svg">
<g clip-path="url(#clip0_86_125)">
<path d="M22.1162 37.9999C21.0261 38.0097 19.8286 37.7748 19.3132 36.904C18.4264 35.4031 16.8716 34.7644 15.7349 33.6151C14.5756 32.4447 13.2891 31.3995 12.1185 30.2404C8.52327 26.6813 5.38981 22.7495 2.67009 18.4885C2.19422 17.743 1.79883 17.0101 1.06029 16.363C-0.51844 14.9773 -0.27697 12.095 1.42603 10.5307C4.9337 7.30785 8.49786 4.14411 12.0973 1.02399C13.6563 -0.326473 15.9608 -0.316626 17.5339 0.917076C17.8827 1.18998 18.0663 1.67249 18.3233 2.06075C18.401 2.17891 18.4334 2.35897 18.5393 2.42228C21.91 4.45219 24.6185 7.25439 27.1433 10.172C29.7515 13.1852 32.0221 16.4896 34.434 19.6716C34.5795 19.8643 34.6924 20.0866 34.787 20.3103C34.9692 20.7421 35.1146 21.0896 35.6527 21.3273C36.1045 21.5257 36.4448 22.1573 36.6609 22.6707C37.3924 24.4137 36.925 26.3803 35.4804 27.6773C32.0716 30.7398 28.6472 33.7839 25.2172 36.8196C24.3417 37.5933 23.308 38.021 22.1162 37.9999ZM33.3043 21.6959C33.3693 21.6565 33.4328 21.6185 33.4978 21.5791C33.3905 21.2556 33.3283 20.9081 33.1659 20.6141C32.9019 20.1344 32.5757 19.6885 32.2735 19.2313C28.5399 13.5903 24.0338 8.64284 18.7766 4.37904C18.3812 4.0583 17.8192 3.94155 17.3447 3.73476C17.5 4.80106 17.7359 5.65916 17.7104 6.50883C17.6935 7.09543 17.8107 7.45978 18.2301 7.84522C22.3478 11.6223 26.4485 15.4191 30.5578 19.206C31.4686 20.0416 32.3893 20.8645 33.3043 21.6959ZM3.72494 16.3222C3.65716 16.3644 3.58938 16.4066 3.5216 16.4488C3.64868 16.8005 3.71505 17.1901 3.90992 17.4982C7.82569 23.6822 12.6254 29.0897 18.3148 33.708C18.5874 33.9288 18.9587 34.0301 19.131 34.1131C19.0872 33.0932 18.9333 32.1324 19.0477 31.204C19.1141 30.6638 19.0237 30.3754 18.658 30.0406C14.5897 26.3029 10.5327 22.554 6.47007 18.8121C5.56209 17.9765 4.63998 17.1521 3.72494 16.3222ZM32.6533 23.2559C27.3029 18.3268 22.04 13.4778 16.5779 8.4459C16.6768 8.80742 16.6782 8.89746 16.7206 8.95794C20.1844 13.7633 23.6483 18.5701 27.1249 23.3657C27.2704 23.5654 27.5232 23.7356 27.7604 23.8144C28.7489 24.1422 29.7501 24.4292 30.9306 24.7865C31.3373 24.4235 31.9501 23.8805 32.6533 23.2559ZM4.39569 14.7818C9.70238 19.666 14.9484 24.4939 20.1943 29.3218C20.2861 29.1234 20.2776 29.0292 20.2296 28.9616C16.8434 24.2561 13.4558 19.5506 10.0568 14.855C9.92973 14.6791 9.66849 14.4554 9.49904 14.478C8.16319 14.6524 7.04339 14.1811 6.00125 13.3498C5.46889 13.8238 4.97465 14.2655 4.39569 14.7818ZM25.6564 24.4882C25.703 24.4531 25.7496 24.4179 25.7947 24.3827C25.7552 24.2772 25.7368 24.1577 25.6733 24.069C22.2264 19.2932 18.7794 14.5173 15.3141 9.75415C15.1842 9.57409 14.889 9.4925 14.6532 9.41372C13.8031 9.12957 12.946 8.86088 12.0888 8.60064C11.8869 8.53874 11.6694 8.52749 11.459 8.49372C11.4845 8.70473 11.4859 8.92137 11.5381 9.12535C11.7302 9.88217 11.9194 10.6404 12.1453 11.386C12.2668 11.7841 12.36 12.2666 12.6382 12.5296C14.4541 14.2529 16.3195 15.9255 18.1665 17.6178C20.6646 19.9065 23.1612 22.1981 25.6564 24.4882ZM11.3644 13.527C11.3249 13.5678 11.2854 13.61 11.2458 13.6508C11.2726 13.7352 11.2783 13.8351 11.3277 13.9026C14.8043 18.7277 18.2809 23.5514 21.7745 28.3652C21.9129 28.5551 22.1896 28.6648 22.424 28.7633C23.1725 29.0756 23.9294 29.3654 24.6862 29.658C24.8628 29.7255 25.0477 29.7691 25.2299 29.824C25.1889 29.6158 25.2002 29.3752 25.0972 29.205C24.5846 28.3624 24.2923 27.4438 24.5662 26.5013C24.7512 25.864 24.521 25.5602 24.1115 25.1874C21.3805 22.7003 18.665 20.1963 15.9411 17.7008C14.4188 16.3067 12.8909 14.9183 11.3644 13.527ZM35.1048 23.1884C30.2739 27.493 25.5151 31.7329 20.642 36.0755C22.0301 36.6536 23.1273 36.5495 24.0889 35.6999C27.5641 32.629 31.0322 29.5497 34.4778 26.4464C35.4253 25.5953 35.6188 24.4489 35.1048 23.1884ZM1.98522 14.8057C6.76944 10.5475 11.5325 6.30626 16.4056 1.96931C14.9935 1.37848 13.8879 1.50368 12.8923 2.38148C11.7697 3.37041 10.6584 4.37341 9.5414 5.36797C7.28345 7.37678 5.0156 9.37715 2.76894 11.4C1.65338 12.4044 1.37096 13.617 1.98522 14.8057ZM23.8446 31.0914C22.7898 30.1911 21.6954 30.1208 20.9809 30.8298C20.2579 31.5472 20.2904 32.622 21.1009 33.5377C21.999 32.7359 22.8985 31.9355 23.8446 31.0914ZM29.4676 26.0905C28.273 25.2197 27.2181 25.1902 26.5502 25.9189C25.8978 26.6293 25.9501 27.7364 26.7183 28.5382C27.6121 27.742 28.5074 26.9444 29.4676 26.0905ZM7.25803 12.2244C8.25215 13.0572 9.355 13.1148 10.054 12.434C10.7572 11.7503 10.7389 10.6798 9.96503 9.8062C9.08247 10.5954 8.1999 11.3846 7.25803 12.2244ZM12.9375 7.16436C13.8921 7.98027 15.0373 8.01825 15.718 7.32895C16.3732 6.66497 16.3548 5.61837 15.6304 4.77574C14.7478 5.55788 13.8681 6.33861 12.9375 7.16436Z" fill="#B40B0B"/>
</g>
<defs>
<clipPath id="clip0_86_125">
<rect width="37" height="38" fill="white"/>
</clipPath>
</defs>
</svg>
