<svg width="52" height="39" viewBox="0 0 52 39" fill="none" xmlns="http://www.w3.org/2000/svg">
<path d="M26.2341 38.4112C18.1183 38.3939 11.5259 31.7511 11.5639 23.6276C11.6007 15.5006 18.2955 8.94636 26.5195 8.98433C34.518 9.02229 41.0735 15.7019 41.0551 23.7967C41.0355 31.9202 34.4351 38.4284 26.2341 38.4112ZM29.8646 36.5163C35.1578 35.8341 40.4498 30.252 40.291 23.2732C40.1483 16.9801 34.8781 10.9551 29.547 10.7008C30.9727 11.5775 32.8495 12.3932 34.274 13.7024C35.732 15.0416 36.8965 16.7765 37.9148 18.4999C38.9447 20.2429 39.1369 22.2873 39.0172 24.3064C38.6651 30.2474 35.3948 34.0635 29.8646 36.5163ZM26.3803 18.9716C23.7797 18.9532 21.606 21.0862 21.5899 23.6713C21.5738 26.2783 23.6899 28.4412 26.2859 28.4734C28.8796 28.5044 31.0486 26.3669 31.0647 23.7622C31.0808 21.1379 28.9797 18.99 26.3803 18.9716Z" fill="#B40B0B"/>
<path d="M9.17275 22.9706C9.1739 25.4936 9.17735 28.0166 9.17045 30.5396C9.1693 30.9135 9.21418 31.3346 9.05998 31.6464C8.9219 31.9259 8.55598 32.217 8.2591 32.255C8.03701 32.2837 7.56523 31.9351 7.54797 31.7258C7.47893 30.8928 6.99218 30.7996 6.31558 30.7674C5.0268 30.7076 4.56422 30.2186 4.55962 28.9336C4.54696 24.9046 4.54581 20.8745 4.56077 16.8444C4.56537 15.4247 5.00148 14.9599 6.46402 14.9311C7.22693 14.9162 7.46397 14.6389 7.58939 13.9061C8.29132 9.83337 9.9207 6.20708 13.008 3.3585C15.016 1.50624 17.3266 0.455851 20.155 0.519128C24.2584 0.611166 28.3675 0.618068 32.4709 0.517977C35.6905 0.439745 38.2566 1.69491 40.3888 3.95905C42.9882 6.71904 44.6084 9.98869 45.1607 13.7542C45.2735 14.5262 45.4818 14.9507 46.4023 14.9541C47.5898 14.9587 48.1088 15.5282 48.1192 16.7362C48.156 20.84 48.1468 24.9437 48.1479 29.0486C48.1479 30.1243 47.599 30.7582 46.5277 30.8456C45.8926 30.8974 45.354 30.9032 45.2355 31.7453C45.2056 31.9628 44.6602 32.2814 44.3955 32.2435C44.1239 32.2044 43.8098 31.8235 43.6936 31.5233C43.5659 31.1919 43.6315 30.7812 43.6303 30.405C43.628 25.7352 43.6878 21.0643 43.6119 16.3957C43.5348 11.7006 41.8352 7.65897 38.3452 4.448C36.7641 2.9915 34.9092 2.21953 32.7114 2.24254C28.8324 2.28281 24.9453 2.3921 21.0744 2.21378C17.0193 2.02625 14.237 3.92683 12.13 7.09064C10.1704 10.0347 9.03927 13.2629 9.15894 16.8708C9.22568 18.9014 9.1716 20.9378 9.17275 22.9706Z" fill="#B40B0B"/>
<path d="M3.22827 22.9327C3.22827 24.625 3.23863 26.3174 3.22137 28.0086C3.21676 28.4987 3.39167 29.1245 2.53095 29.1383C1.78185 29.1498 1.17428 28.9888 1.00053 28.1489C0.955649 27.9303 0.953347 27.7003 0.952196 27.4759C0.949895 24.3926 0.947594 21.3094 0.959101 18.2249C0.960251 17.8936 0.938388 17.4001 1.12825 17.2643C1.57127 16.9479 2.12706 16.7201 2.66328 16.6442C2.80597 16.6235 3.20065 17.2781 3.21216 17.6301C3.2697 19.3961 3.23863 21.1644 3.23863 22.9315C3.23517 22.9327 3.23172 22.9327 3.22827 22.9327Z" fill="#B40B0B"/>
<path d="M49.4126 22.9062C49.4114 21.1782 49.4045 19.4502 49.416 17.7222C49.4195 17.2056 49.347 16.6131 50.1536 16.5982C50.9085 16.5832 51.4953 16.796 51.6495 17.6324C51.6829 17.8154 51.6771 18.0063 51.6771 18.1939C51.6806 21.3117 51.6829 24.4306 51.6794 27.5484C51.6794 27.8095 51.6771 28.0822 51.6035 28.3284C51.3745 29.0923 50.7359 29.3167 50.0926 29.1153C49.7888 29.021 49.4575 28.4538 49.4436 28.0903C49.3758 26.3645 49.4137 24.6342 49.4126 22.9062Z" fill="#B40B0B"/>
<path d="M26.3837 27.14C24.4482 27.1549 22.9006 25.6731 22.8649 23.7748C22.8304 21.8788 24.37 20.2751 26.2456 20.2532C28.211 20.2302 29.7598 21.7787 29.7518 23.7564C29.7437 25.6328 28.257 27.125 26.3837 27.14Z" fill="#B40B0B"/>
</svg>
