<svg width="31" height="48" viewBox="0 0 31 48" fill="none" xmlns="http://www.w3.org/2000/svg">
<g clip-path="url(#clip0_92_19)">
<path d="M0 18.0593C1.9141 16.9287 3.43058 17.0945 4.77574 18.6752C6.08494 20.2106 7.23552 21.8818 8.49608 23.4625C8.75834 23.792 9.18769 23.9858 9.5409 24.2421C9.67203 23.8135 9.91526 23.3871 9.91738 22.9585C9.94276 17.1268 9.93641 11.2929 9.93641 5.46113C9.93641 3.19777 10.6069 2.17269 12.098 2.15977C13.6504 2.14685 14.3272 3.16547 14.3272 5.51066C14.3272 9.06613 14.3082 12.6216 14.3547 16.1771C14.3589 16.5669 14.7502 16.9524 14.9617 17.3378C15.133 16.9545 15.4524 16.5712 15.4566 16.1879C15.4926 11.6331 15.4693 7.07843 15.4841 2.52587C15.4905 0.770743 16.622 -0.245722 18.166 0.0557715C19.2658 0.271124 19.9088 1.19714 19.913 2.668C19.9257 7.06335 19.9024 11.4566 19.9447 15.8519C19.949 16.3494 20.2683 16.8425 20.4439 17.3378C20.6342 16.8554 20.9874 16.3752 20.9917 15.8885C21.0382 12.2146 21.0065 8.53852 21.0213 4.86245C21.0255 3.36574 21.5522 2.53879 22.6118 2.24376C24.124 1.82166 25.3761 2.83167 25.3846 4.55019C25.4057 8.54498 25.3909 12.5398 25.3909 16.5346C25.3909 16.7348 25.3317 16.9567 25.3994 17.1289C25.5665 17.5618 25.7907 17.971 25.9916 18.3909C26.1735 17.9774 26.5077 17.5661 26.5161 17.1505C26.5648 14.3552 26.5373 11.5578 26.5457 8.76249C26.55 7.01813 27.3918 5.9909 28.7856 5.99736C30.1921 6.00382 30.9915 6.99659 30.9915 8.77756C30.9958 15.1283 30.9915 21.4812 30.9894 27.832C30.9894 28.028 30.9894 28.2218 30.9894 28.3919C30.8583 28.45 30.7927 28.4996 30.7272 28.5039C29.1726 28.5728 28.1616 27.9763 27.3643 26.4753C26.4442 24.746 24.693 23.8264 22.8381 23.2859C20.171 22.5063 17.6711 21.4403 15.6978 19.3557C15.5243 19.1726 15.1669 19.1705 14.8962 19.0844C14.8221 19.3686 14.6529 19.6658 14.6889 19.935C14.9808 22.1014 14.3737 24.1085 13.7519 26.0984C13.3522 25.8141 12.9863 25.5514 12.6204 25.2908C12.5273 25.9627 12.4343 26.6346 12.3222 27.4573C11.9309 27.0912 11.5269 26.6518 11.0574 26.2987C10.7761 26.0855 10.3975 26.0058 10.0633 25.8658C10.1056 26.2491 10.0083 26.7703 10.2177 26.9878C10.9093 27.7114 11.7109 28.3273 12.5675 29.0681C12.4406 29.8261 12.2778 30.7974 12.1382 31.6287C11.6242 31.5231 11.0933 31.4133 10.5625 31.3013C10.7867 31.8978 11.013 32.4965 11.3048 33.2718C10.8057 33.1598 10.2304 32.9897 9.64242 32.9165C9.32517 32.8777 8.98676 33.0026 8.65682 33.0521C8.83237 33.3601 8.95715 33.8791 9.19192 33.9372C10.2706 34.2043 11.381 34.3421 12.7092 34.5661C13.7139 37.4518 16.273 39.1079 19.0733 40.4689C19.4033 40.6304 19.8897 40.4624 20.3022 40.4474C20.0653 40.1136 19.894 39.6785 19.5788 39.4653C18.4092 38.675 17.0979 38.0763 16.0129 37.1869C13.6102 35.2164 12.8171 32.5697 13.6504 29.5742C14.4097 26.8414 15.4038 24.1774 16.2011 21.7698C18.3289 22.642 20.6871 23.6649 23.0834 24.5802C26.3977 25.8464 28.3203 29.0336 27.8063 32.6107C27.6413 33.752 27.3791 34.8805 27.2331 36.024C27.1929 36.332 27.4087 36.6744 27.506 37.0017C27.7661 36.7713 28.2145 36.571 28.2547 36.3083C28.5381 34.4304 28.7496 32.5396 28.959 30.6509C28.9971 30.3085 28.9273 29.9511 28.9019 29.5053C29.401 29.5397 29.86 29.4687 30.2238 29.6259C30.5368 29.7615 30.9408 30.1406 30.964 30.4399C31.1882 33.289 30.4966 35.8043 28.2864 37.7641C27.9649 38.0483 27.7703 38.6319 27.745 39.0885C27.6731 40.3935 27.7196 41.705 27.7196 43.0897C25.7695 42.8528 24.4455 41.8127 23.2886 40.443C23.0665 40.1803 22.6287 40.1092 22.2903 39.9499C22.3305 40.3375 22.2395 40.8178 22.4299 41.0977C23.5509 42.7365 25.1393 43.6992 27.0216 44.2139C27.3156 44.2936 27.5546 44.58 27.7386 44.8987C25.1392 45.4263 22.8275 44.9138 20.7019 43.5226C20.4058 43.3288 20.1393 43.0574 19.8178 42.939C19.5344 42.8335 19.1918 42.8938 18.8766 42.8787C18.9634 43.1845 18.9528 43.6173 19.1516 43.7746C19.7967 44.2849 20.4904 44.7458 21.2138 45.1334C23.2019 46.1951 25.355 46.5031 27.6456 46.3179C27.6456 46.9402 27.6456 47.4356 27.6456 48.0105C22.6583 48.0105 17.7007 48.0105 12.5675 48.0105C12.5675 46.5095 12.5675 45.0473 12.5675 43.5829C12.5675 41.5457 12.5569 39.5084 12.5717 37.4712C12.576 36.8208 12.392 36.4547 11.6855 36.3277C7.74313 35.6191 6.47411 34.1612 5.46735 30.2396C4.92379 28.1184 3.83878 26.135 2.92297 24.1236C2.00505 22.0928 0.998294 20.118 0 18.0593ZM21.0742 37.0448C23.608 37.0362 25.6109 34.9925 25.6046 32.4168C25.5982 29.9252 23.4811 27.8277 20.9853 27.8406C18.6059 27.8535 16.5184 29.9963 16.5015 32.4427C16.4845 34.9602 18.5636 37.0534 21.0742 37.0448ZM27.4785 24.774C28.8829 24.7632 29.9615 23.6132 29.9319 22.1617C29.9023 20.7124 28.8067 19.6636 27.3431 19.6852C25.9641 19.7067 24.9003 20.7878 24.8918 22.1747C24.8854 23.6886 25.9747 24.7847 27.4785 24.774ZM22.4257 22.1488C23.5107 22.1467 24.4159 21.2422 24.38 20.1977C24.344 19.1403 23.4049 18.2466 22.3622 18.2768C21.347 18.3048 20.5116 19.1576 20.482 20.1934C20.4502 21.2594 21.3364 22.151 22.4257 22.1488ZM17.3602 42.0754C17.3559 41.0633 16.3724 40.0856 15.3784 40.1006C14.3378 40.1179 13.4812 41.0417 13.4981 42.1314C13.515 43.1974 14.3124 43.9899 15.3784 43.9985C16.4613 44.0093 17.3644 43.1306 17.3602 42.0754Z" fill="#B40B0B"/>
<path d="M18.2612 34.2777C20.4122 31.6935 21.5713 31.1766 24.27 31.56C24.6782 33.4055 23.9591 34.9432 22.3602 35.6409C20.8691 36.2934 19.323 35.796 18.2612 34.2777Z" fill="#B40B0B"/>
<path d="M23.6228 30.4078C21.0298 30.0396 19.2256 30.9957 17.8488 33.0631C17.5421 31.3791 18.2443 30.0331 19.5979 29.3547C20.9219 28.6915 22.3601 28.9865 23.6228 30.4078Z" fill="#B40B0B"/>
<path d="M27.3622 23.5962C26.5331 23.5359 26.0635 23.0751 26.0614 22.2287C26.0593 21.3049 26.5775 20.8569 27.4742 20.8655C28.3499 20.872 28.8067 21.4384 28.7961 22.218C28.7856 23.0514 28.3118 23.6371 27.3622 23.5962Z" fill="#B40B0B"/>
<path d="M23.5043 20.1613C23.0369 20.5167 22.7556 20.8957 22.4722 20.9C22.1951 20.9043 21.9117 20.5253 21.6304 20.3142C21.8884 20.03 22.1084 19.5906 22.4172 19.511C22.6519 19.4507 23.003 19.8426 23.5043 20.1613Z" fill="#B40B0B"/>
<path d="M15.3932 40.9881C15.7633 41.4834 16.1821 41.8107 16.1313 42.0283C16.0552 42.3556 15.6533 42.6076 15.3911 42.8897C15.1394 42.6377 14.6889 42.3879 14.6847 42.1295C14.6783 41.8194 15.0506 41.5028 15.3932 40.9881Z" fill="#B40B0B"/>
</g>
<defs>
<clipPath id="clip0_92_19">
<rect width="31" height="48" fill="white"/>
</clipPath>
</defs>
</svg>
