<svg width="13" height="15" viewBox="0 0 13 15" fill="none" xmlns="http://www.w3.org/2000/svg">
<g clip-path="url(#clip0_2_39)">
<path d="M4.625 14.0625C4.40951 14.0625 4.20285 13.9637 4.05048 13.7879C3.8981 13.6121 3.8125 13.3736 3.8125 13.125L3.8125 1.875C3.8125 1.62636 3.8981 1.3879 4.05048 1.21209C4.20285 1.03627 4.40951 0.937501 4.625 0.937501L11.125 0.937501C11.3405 0.937501 11.5472 1.03627 11.6995 1.21209C11.8519 1.3879 11.9375 1.62636 11.9375 1.875L11.9375 13.125C11.9375 13.3736 11.8519 13.6121 11.6995 13.7879C11.5472 13.9637 11.3405 14.0625 11.125 14.0625L4.625 14.0625ZM11.125 15C11.556 15 11.9693 14.8025 12.274 14.4508C12.5788 14.0992 12.75 13.6223 12.75 13.125L12.75 1.875C12.75 1.37772 12.5788 0.900806 12.274 0.549176C11.9693 0.197545 11.556 5.79681e-07 11.125 5.98519e-07L4.625 8.82643e-07C4.19402 9.01482e-07 3.7807 0.197545 3.47595 0.549176C3.1712 0.900806 3 1.37772 3 1.875L3 13.125C3 13.6223 3.1712 14.0992 3.47595 14.4508C3.7807 14.8025 4.19402 15 4.625 15L11.125 15Z" fill="white"/>
<path d="M7.875 1.875C7.65951 1.875 7.45285 1.97377 7.30048 2.14959C7.1481 2.3254 7.0625 2.56386 7.0625 2.8125C7.0625 3.06114 7.1481 3.2996 7.30048 3.47541C7.45285 3.65123 7.65951 3.75 7.875 3.75C8.09049 3.75 8.29715 3.65123 8.44952 3.47541C8.6019 3.2996 8.6875 3.06114 8.6875 2.8125C8.6875 2.56386 8.6019 2.3254 8.44952 2.14959C8.29715 1.97377 8.09049 1.875 7.875 1.875Z" fill="white"/>
<path d="M7.72331 10.9466C7.74321 10.9635 7.76686 10.977 7.79289 10.9861C7.81892 10.9953 7.84682 11 7.875 11C7.90318 11 7.93108 10.9953 7.95711 10.9861C7.98314 10.977 8.00679 10.9635 8.02669 10.9466L9.31217 9.85577C9.3524 9.82163 9.375 9.77533 9.375 9.72705C9.375 9.67877 9.3524 9.63247 9.31217 9.59833C9.27194 9.5642 9.21738 9.54502 9.16048 9.54502C9.10359 9.54502 9.04903 9.5642 9.0088 9.59833L8.08925 10.379L8.08925 7.1818C8.08925 7.13359 8.06667 7.08734 8.0265 7.05325C7.98632 7.01915 7.93182 7 7.875 7C7.81818 7 7.76368 7.01915 7.7235 7.05325C7.68333 7.08734 7.66075 7.13359 7.66075 7.1818L7.66075 10.379L6.7412 9.59833C6.70097 9.5642 6.64641 9.54502 6.58952 9.54502C6.53262 9.54502 6.47806 9.5642 6.43783 9.59833C6.3976 9.63247 6.375 9.67877 6.375 9.72705C6.375 9.77533 6.3976 9.82163 6.43783 9.85577L7.72331 10.9466Z" fill="white"/>
</g>
<defs>
<clipPath id="clip0_2_39">
<rect width="15" height="13" fill="white" transform="translate(0 15) rotate(-90)"/>
</clipPath>
</defs>
</svg>
