<svg width="76" height="26" viewBox="0 0 76 26" fill="none" xmlns="http://www.w3.org/2000/svg">
<path d="M10.6543 25.3867C7.38477 25.3867 4.92383 24.584 3.27148 22.9785C1.61914 21.3613 0.792969 18.959 0.792969 15.7715V14.3828C0.792969 9.82422 1.66016 6.42578 3.39453 4.1875C5.12891 1.94922 7.66602 0.830078 11.0059 0.830078C14.2637 0.830078 16.7188 1.63281 18.3711 3.23828C20.0234 4.83203 20.8496 7.24023 20.8496 10.4629V11.834C20.8496 16.252 20.0059 19.6152 18.3184 21.9238C16.6309 24.2324 14.0762 25.3867 10.6543 25.3867ZM17.5098 11.2363C17.5098 8.4707 16.8945 6.42578 15.6641 5.10156C14.4453 3.76562 12.7168 3.09766 10.4785 3.09766C9.43555 3.09766 8.45117 3.26172 7.52539 3.58984C6.59961 3.90625 5.87305 4.25781 5.3457 4.64453C4.99414 5.72266 4.70117 6.93555 4.4668 8.2832C4.24414 9.61914 4.13281 11.0723 4.13281 12.6426V14.9805C4.13281 17.5703 4.78906 19.5742 6.10156 20.9922C7.42578 22.4102 9.11914 23.1191 11.1816 23.1191C12.2129 23.1191 13.1797 22.9668 14.082 22.6621C14.9961 22.3457 15.7402 21.9766 16.3145 21.5547C16.6895 20.3828 16.9824 19.0938 17.1934 17.6875C17.4043 16.2812 17.5098 14.9102 17.5098 13.5742V11.2363ZM31.0098 3.48438H25.7363L24.6465 6.47266L22.9062 6.31445L23.1699 1.2168H42.1895L42.4355 6.31445L40.7129 6.47266L39.6055 3.48438H34.3496V22.6797L37.0391 23.2773L36.6875 25H28.6719L28.3203 23.2773L31.0098 22.6797V3.48438ZM46.6543 3.53711L43.9648 2.93945L44.3164 1.2168H51.8223L59.4863 19.5332H59.7676L67.1152 1.2168H74.7969L75.1484 2.93945L72.4766 3.53711V22.6797L75.1484 23.2773L74.7969 25H66.7988L66.4473 23.2773L69.1367 22.6797V3.73047H68.8555L60.207 25H58.3613L49.3965 3.73047H49.1152V22.6797L51.7871 23.2773L51.4355 25H44.3164L43.9648 23.2773L46.6543 22.6797V3.53711Z" fill="#B40B0B"/>
</svg>
