<svg width="38" height="48" viewBox="0 0 38 48" fill="none" xmlns="http://www.w3.org/2000/svg">
<g clip-path="url(#clip0_90_2)">
<path d="M10.6666 31.4452C10.7971 30.4382 10.8452 29.7037 9.93533 29.0936C9.46798 28.7792 9.1916 27.9403 9.12949 27.31C9.00683 26.0541 9.12794 24.7748 9.06739 23.5095C9.04876 23.1267 8.86399 22.6551 8.59227 22.3952C7.0396 20.912 7.05668 18.7581 8.62953 17.2873C8.89815 17.0352 9.06583 16.5388 9.06583 16.1559C9.06273 14.3786 9.15899 12.6355 9.8903 10.9718C10.5129 9.55555 11.3778 8.32606 12.5733 7.35958C13.0717 6.9565 13.2534 6.55963 13.241 5.90909C13.1757 2.86338 15.4194 0.340583 18.3865 0.0308758C21.3909 -0.281944 24.1143 1.76306 24.6965 4.76987C24.7012 4.79633 24.7183 4.82434 24.7136 4.8508C24.4699 6.34798 25.3036 7.24597 26.2942 8.24357C28.1124 10.0707 28.9291 12.4021 28.9105 15.0027C28.9027 16.0547 28.8686 16.9916 29.8172 17.8881C31.0578 19.06 30.8063 21.063 29.5005 22.2489C29.0378 22.6691 28.8841 23.0862 28.9012 23.6745C28.9338 24.8588 29.0068 26.0556 28.8779 27.2276C28.8049 27.8874 28.5347 28.7465 28.0503 29.0905C27.1653 29.7192 27.1979 30.4429 27.3299 31.3985C27.6 31.4125 27.8904 31.4405 28.1807 31.4421C30.0253 31.4483 31.8683 31.4312 33.7113 31.453C36.2406 31.4825 37.975 33.2085 37.9874 35.7188C38.0045 39.3855 37.9983 43.0522 37.9967 46.7205C37.9967 47.7694 37.7716 48.0013 36.7484 48.0013C24.9419 48.0044 13.1354 48.0044 1.32889 48.0013C0.204758 47.9966 -0.000194285 47.7787 -0.000194285 46.6208C-0.000194285 43.0086 -0.00329962 39.3964 0.0106744 35.7842C0.0199904 33.1571 1.73879 31.4576 4.37522 31.4467C6.10955 31.4405 7.84233 31.4436 9.57666 31.4436C9.92757 31.4452 10.2769 31.4452 10.6666 31.4452ZM22.3753 36.125C22.0756 38.3459 20.9608 39.6734 19.2358 39.6843C18.5387 39.689 17.7747 39.4275 17.1537 39.0836C16.0513 38.4751 15.7485 37.3296 15.6243 36.1453C13.0919 36.939 11.1759 35.82 10.6387 33.112C8.59227 33.112 6.53343 33.1011 4.47304 33.1151C2.59587 33.1291 1.68135 34.0364 1.67203 35.9118C1.65495 39.1645 1.65961 42.4188 1.66116 45.6715C1.66116 45.88 1.70929 46.0886 1.73258 46.2769C3.65789 46.2769 5.51488 46.2769 7.45416 46.2769C7.45416 43.8024 7.45416 41.3901 7.45416 38.9638C8.04107 38.9638 8.53948 38.9638 9.1357 38.9638C9.1357 39.7948 9.1357 40.5512 9.1357 41.3449C13.2487 41.4087 17.2655 41.5581 21.1689 40.3006C23.3814 39.5878 25.4449 38.6665 26.7678 36.6106C27.4417 35.5632 27.8842 34.4364 27.8686 33.1073C27.5736 33.2023 27.3454 33.3563 27.2367 33.5696C27.0395 33.9571 26.9712 34.4177 26.7492 34.7866C25.8657 36.248 24.5646 36.6386 22.3753 36.125ZM19.0107 23.9997C20.5245 23.9997 22.0384 24.0153 23.5507 23.9951C24.8161 23.978 25.5924 23.1733 25.6017 21.9034C25.6095 20.7735 25.6266 19.6421 25.5785 18.5137C25.5676 18.2476 25.3813 17.8554 25.1654 17.7542C23.2743 16.864 21.363 16.0143 19.4423 15.1863C19.1985 15.082 18.8337 15.0774 18.5915 15.1816C16.7003 16.0049 14.8154 16.8453 12.9553 17.7402C12.6991 17.8632 12.4677 18.3036 12.4522 18.6087C12.3994 19.6529 12.4429 20.7019 12.4584 21.7493C12.4817 23.2107 13.2534 23.9826 14.7144 23.9951C16.1491 24.0091 17.5791 23.9997 19.0107 23.9997ZM36.3198 46.3018C36.3198 42.6024 36.3462 38.9995 36.3043 35.3967C36.2903 34.2886 35.4767 33.319 34.3992 33.2054C33.1617 33.0746 31.8994 33.1758 30.6402 33.1758C30.6402 37.5802 30.6402 41.9348 30.6402 46.3018C32.5546 46.3018 34.3883 46.3018 36.3198 46.3018ZM21.4375 26.5365C19.773 26.5365 18.194 26.5365 16.573 26.5365C16.573 27.0704 16.573 27.5497 16.573 28.0617C18.2173 28.0617 19.815 28.0617 21.4794 28.0617C21.4794 27.7131 21.4841 27.4408 21.4779 27.1684C21.4717 26.9785 21.453 26.7902 21.4375 26.5365ZM10.707 18.2912C9.60927 18.4343 9.05497 19.0615 9.12639 19.9844C9.1916 20.8217 9.83751 21.4038 10.707 21.3805C10.707 20.3704 10.707 19.3604 10.707 18.2912ZM27.3112 18.2694C27.3112 19.3479 27.3112 20.3797 27.3112 21.4194C28.2894 21.2669 28.8437 20.6941 28.8592 19.8662C28.8748 19.0647 28.2894 18.4297 27.3112 18.2694Z" fill="#B40B0B"/>
<path d="M17.9085 20.1621C17.6228 20.436 17.3961 20.727 17.1026 20.9076C16.9241 21.0165 16.6368 20.9854 16.4039 20.9636C16.0406 20.9294 15.6447 20.7208 15.3264 20.8126C14.3498 21.0959 14.2007 21.0741 13.5594 20.0936C14.6494 18.7023 16.6632 18.6898 17.9085 20.1621Z" fill="#B40B0B"/>
<path d="M24.4654 20.1356C23.9608 20.6119 23.6564 21.4912 22.6689 20.8204C22.5028 20.7084 22.1286 20.6928 21.9749 20.8049C21.0107 21.513 20.6629 20.6648 20.1536 20.1808C21.1147 18.7054 23.2916 18.6789 24.4654 20.1356Z" fill="#B40B0B"/>
<path d="M19.7701 18.1731C19.2515 18.1731 18.7749 18.1731 18.233 18.1731C18.233 17.6627 18.233 17.1833 18.233 16.6293C18.7065 16.6293 19.2018 16.6293 19.7701 16.6293C19.7701 17.1055 19.7701 17.5833 19.7701 18.1731Z" fill="#B40B0B"/>
</g>
<defs>
<clipPath id="clip0_90_2">
<rect width="38" height="48" fill="white"/>
</clipPath>
</defs>
</svg>
