<svg width="14" height="14" viewBox="0 0 14 14" fill="none" xmlns="http://www.w3.org/2000/svg">
<g clip-path="url(#clip0_2_45)">
<path d="M13.5642 1.69748C13.646 1.77949 13.6919 1.89056 13.6919 2.00635C13.6919 2.12215 13.646 2.23322 13.5642 2.31523L12.6516 3.22873L10.9016 1.47873L11.8142 0.565228C11.8963 0.483209 12.0075 0.437134 12.1236 0.437134C12.2396 0.437134 12.3508 0.483209 12.4329 0.565228L13.5642 1.6966V1.69748ZM12.033 3.84648L10.283 2.09648L4.32162 8.05873C4.27346 8.10688 4.23721 8.1656 4.21575 8.23023L3.51137 10.3425C3.4986 10.381 3.49678 10.4223 3.50613 10.4618C3.51548 10.5012 3.53563 10.5373 3.56431 10.566C3.593 10.5947 3.6291 10.6149 3.66858 10.6242C3.70806 10.6336 3.74936 10.6318 3.78787 10.619L5.90012 9.9146C5.96466 9.89339 6.02338 9.85744 6.07162 9.8096L12.033 3.84648Z" fill="white"/>
<path fill-rule="evenodd" clip-rule="evenodd" d="M0.875 11.8125C0.875 12.1606 1.01328 12.4944 1.25942 12.7406C1.50556 12.9867 1.8394 13.125 2.1875 13.125H11.8125C12.1606 13.125 12.4944 12.9867 12.7406 12.7406C12.9867 12.4944 13.125 12.1606 13.125 11.8125V6.5625C13.125 6.44647 13.0789 6.33519 12.9969 6.25314C12.9148 6.17109 12.8035 6.125 12.6875 6.125C12.5715 6.125 12.4602 6.17109 12.3781 6.25314C12.2961 6.33519 12.25 6.44647 12.25 6.5625V11.8125C12.25 11.9285 12.2039 12.0398 12.1219 12.1219C12.0398 12.2039 11.9285 12.25 11.8125 12.25H2.1875C2.07147 12.25 1.96019 12.2039 1.87814 12.1219C1.79609 12.0398 1.75 11.9285 1.75 11.8125V2.1875C1.75 2.07147 1.79609 1.96019 1.87814 1.87814C1.96019 1.79609 2.07147 1.75 2.1875 1.75H7.875C7.99103 1.75 8.10231 1.70391 8.18436 1.62186C8.26641 1.53981 8.3125 1.42853 8.3125 1.3125C8.3125 1.19647 8.26641 1.08519 8.18436 1.00314C8.10231 0.921094 7.99103 0.875 7.875 0.875H2.1875C1.8394 0.875 1.50556 1.01328 1.25942 1.25942C1.01328 1.50556 0.875 1.8394 0.875 2.1875V11.8125Z" fill="white"/>
</g>
<defs>
<clipPath id="clip0_2_45">
<rect width="14" height="14" fill="white"/>
</clipPath>
</defs>
</svg>
