<svg width="15" height="15" viewBox="0 0 15 15" fill="none" xmlns="http://www.w3.org/2000/svg">
<g clip-path="url(#clip0_2_30)">
<path d="M11.008 9.69765C11.9158 8.45892 12.3224 6.92311 12.1464 5.39748C11.9705 3.87185 11.2249 2.46891 10.059 1.46934C8.8931 0.469769 7.39276 -0.0527164 5.85815 0.00641467C4.32354 0.0655457 2.86785 0.701932 1.7823 1.78826C0.696757 2.87458 0.0614125 4.33073 0.00337956 5.86537C-0.0546534 7.40002 0.468905 8.89999 1.46931 10.0652C2.46972 11.2304 3.87319 11.9749 5.39895 12.1498C6.9247 12.3246 8.46022 11.9169 9.6983 11.0083H9.69737C9.72487 11.0458 9.75549 11.0817 9.78924 11.1161L13.3986 14.7255C13.5744 14.9014 13.8129 15.0003 14.0616 15.0003C14.3103 15.0004 14.5488 14.9017 14.7247 14.7259C14.9006 14.5501 14.9995 14.3117 14.9996 14.063C14.9997 13.8143 14.901 13.5758 14.7252 13.3998L11.1158 9.79047C11.0823 9.75652 11.0463 9.72612 11.008 9.69765ZM11.2499 6.0939C11.2499 6.77103 11.1165 7.44153 10.8574 8.06712C10.5982 8.6927 10.2184 9.26112 9.73964 9.73992C9.26083 10.2187 8.69241 10.5985 8.06683 10.8577C7.44124 11.1168 6.77074 11.2502 6.09362 11.2502C5.41649 11.2502 4.74599 11.1168 4.1204 10.8577C3.49482 10.5985 2.9264 10.2187 2.4476 9.73992C1.96879 9.26112 1.58899 8.6927 1.32986 8.06712C1.07074 7.44153 0.937365 6.77103 0.937365 6.0939C0.937365 4.72638 1.48061 3.41487 2.4476 2.44789C3.41458 1.4809 4.72609 0.937655 6.09362 0.937655C7.46114 0.937655 8.77265 1.4809 9.73964 2.44789C10.7066 3.41487 11.2499 4.72638 11.2499 6.0939Z" fill="#C90808"/>
</g>
<defs>
<clipPath id="clip0_2_30">
<rect width="15" height="15" fill="white"/>
</clipPath>
</defs>
</svg>
