<svg width="36" height="43" viewBox="0 0 36 43" fill="none" xmlns="http://www.w3.org/2000/svg">
<g clip-path="url(#clip0_92_40)">
<path d="M1.16028 16.3848C0.799948 15.9433 0.125699 15.4909 0.139347 15.0603C0.174834 13.9374 -0.485766 12.6238 0.808137 11.7163C6.29221 7.86815 11.7545 3.99003 17.2631 0.18004C17.6262 -0.0706892 18.4751 -0.051612 18.8464 0.204567C24.3195 3.99275 29.7326 7.86542 35.2003 11.6618C36.1721 12.3377 35.9728 13.2179 35.9565 14.0873C35.9428 14.8722 36.3495 15.9187 34.9765 16.0986C34.8373 16.1177 34.6953 16.4747 34.6434 16.6982C34.5834 16.9434 34.6353 17.2132 34.6216 17.4722C34.2667 23.258 34.1221 29.0384 34.9219 34.8024C35.0884 35.9961 34.5534 36.3504 33.4423 36.2359C31.8891 36.0724 30.4778 35.6909 29.4951 34.3337C29.3068 34.0748 28.8864 33.9549 28.5506 33.8349C27.9828 33.636 27.3878 33.5188 26.8254 33.309C25.9164 32.9683 25.6489 32.336 25.8454 31.3604C26.4323 28.4415 26.9756 25.5146 27.4615 22.5767C27.5352 22.1243 27.3714 21.432 27.0493 21.1486C25.4878 19.7669 24.7017 17.9709 24.0984 16.0632C23.8282 15.2101 24.3195 14.6079 25.2777 14.6024C27.8736 14.586 30.4696 14.5969 33.0656 14.5969C33.4888 14.5969 33.9119 14.5969 34.3213 14.5969C34.7226 13.6458 34.4278 13.346 33.5242 13.3542C30.7126 13.3842 27.9009 13.3433 25.0893 13.3815C24.0793 13.3951 23.7872 12.9645 23.9619 11.8689C26.7681 11.8689 29.547 11.8689 32.6862 11.8689C32.1785 11.4274 31.9792 11.223 31.7526 11.0622C27.4369 8.02077 23.1211 4.99294 18.8191 1.94332C18.3222 1.59175 17.9619 1.40098 17.3586 1.83158C12.9282 4.99839 8.47056 8.12433 4.01833 11.2612C3.88184 11.3566 3.71533 11.4138 3.56519 11.4901C3.61432 11.6182 3.66346 11.7463 3.7126 11.8744C5.23853 11.8744 6.76446 11.8744 8.28766 11.8744C9.153 11.8744 10.0265 11.809 10.8809 11.9016C11.3259 11.9507 12.0738 12.2396 12.1093 12.4985C12.2212 13.3188 11.5415 13.3733 10.8809 13.3678C8.11296 13.3542 5.34226 13.3787 2.57429 13.3569C1.76355 13.3515 1.2722 13.5041 1.7226 14.5942C4.55609 14.5942 7.44417 14.6896 10.3213 14.5561C11.8009 14.4879 12.2431 15.2292 11.7654 16.611C11.1457 18.4042 10.294 19.9931 8.83907 21.2631C8.57702 21.492 8.49785 22.1079 8.5661 22.5058C9.03562 25.3156 9.56246 28.1145 10.0811 30.9134C10.4169 32.7176 10.2203 33.1318 8.44326 33.5897C7.43598 33.8486 6.69076 34.3609 5.84726 34.9605C4.77174 35.7263 3.254 35.9661 1.88912 36.1923C1.04836 36.334 1.08384 35.4756 1.12752 34.8706C1.30222 32.4587 1.4742 30.0468 1.68985 27.6403C1.85636 25.8116 1.88093 24.0456 1.50422 22.1897C1.11933 20.2847 1.4196 18.2407 1.4196 16.2567C1.33771 16.2975 1.24763 16.3411 1.16028 16.3848ZM33.0056 16.1258C30.5788 16.1258 28.2449 16.1258 25.9 16.1258C26.2003 19.3199 29.809 22.1624 33.0056 21.7618C33.0056 19.9031 33.0056 18.039 33.0056 16.1258ZM10.163 16.0332C8.91278 16.0332 7.75536 16.0332 6.59795 16.0332C5.4105 16.0332 4.22579 16.0332 3.06018 16.0332C3.06018 18.1153 3.06018 19.9794 3.06018 21.8354C6.50513 21.9253 9.81633 19.2572 10.163 16.0332ZM2.63434 34.6144C4.85363 34.5381 5.31769 34.0639 5.26037 32.0989C5.24672 31.5811 5.23034 31.0633 5.20577 30.5455C5.08566 28.1445 4.96009 25.7435 4.81269 22.8901C4.17665 23.3888 3.57338 23.6259 3.54608 23.9202C3.19394 27.4741 2.92643 31.036 2.63434 34.6144ZM31.6107 23.0999C31.4687 23.1953 31.3295 23.288 31.1876 23.3834C31.0511 26.3049 30.9064 29.2292 30.7863 32.1534C30.7071 34.0748 31.2913 34.6226 33.4069 34.5599C33.1202 31.0333 32.8554 27.5095 32.5088 23.9938C32.476 23.6695 31.9219 23.397 31.6107 23.0999ZM7.05108 22.5167C6.93644 22.4976 6.82452 22.4813 6.70987 22.4622C6.59249 22.8001 6.36319 23.1408 6.37411 23.4733C6.45327 26.1387 6.5843 28.8013 6.67984 31.4639C6.70441 32.1534 7.02106 32.3742 7.66801 32.2706C8.26583 32.1725 8.79267 32.0226 8.64799 31.235C8.11569 28.3298 7.58339 25.4246 7.05108 22.5167ZM29.4678 22.5031C29.3122 22.5058 29.1566 22.5113 29.001 22.514C28.4687 25.4164 27.9337 28.3189 27.4041 31.2186C27.2431 32.1016 27.8573 32.1943 28.4906 32.2815C29.2112 32.3769 29.3614 31.979 29.3805 31.3658C29.4678 28.7877 29.5934 26.2095 29.678 23.6286C29.6862 23.2553 29.5388 22.8792 29.4678 22.5031Z" fill="#B40B0B"/>
<path d="M17.8909 40.3238C13.0046 40.3238 8.11833 40.3238 3.23207 40.3238C2.84445 40.3238 2.42134 40.3919 2.07739 40.2611C1.82079 40.1657 1.55055 39.8196 1.50687 39.5498C1.47684 39.3699 1.79349 39.0156 2.02552 38.9366C2.38039 38.8139 2.78985 38.8385 3.17748 38.8385C13.081 38.833 22.9846 38.8357 32.8854 38.8357C33.101 38.8357 33.3549 38.7703 33.5269 38.8575C33.9063 39.0483 34.2421 39.3208 34.597 39.5579C34.2175 39.8141 33.849 40.2665 33.4586 40.2883C31.9491 40.3755 30.4341 40.321 28.9191 40.321C25.2421 40.3238 21.5651 40.3238 17.8909 40.3238Z" fill="#B40B0B"/>
<path d="M17.9837 23.3532C20.1621 23.3832 21.8108 24.3616 22.8263 26.2612C23.8172 28.1089 23.7926 30.0194 22.6134 31.7799C21.4369 33.5323 20.1266 35.1947 18.9036 36.9144C18.2649 37.8138 17.7353 37.7592 17.1211 36.8899C15.9282 35.2002 14.6534 33.565 13.4933 31.8535C12.2703 30.0548 12.2267 28.1198 13.2421 26.223C14.2358 24.3643 15.8627 23.4295 17.9837 23.3532ZM18.0219 35.6253C19.2558 33.9247 20.4296 32.4367 21.4532 30.856C22.5096 29.2263 22.0374 26.9616 20.5278 25.727C18.991 24.4706 16.9273 24.4979 15.4341 25.7951C13.9491 27.0869 13.5724 29.3108 14.6616 30.946C15.688 32.4803 16.8127 33.9493 18.0219 35.6253Z" fill="#B40B0B"/>
<path d="M23.1429 14.2997C23.1784 16.6217 20.3477 19.4206 18.0001 19.377C15.6388 19.3334 13.0456 16.7852 12.9118 14.3788C12.7862 12.1249 15.5706 9.28517 17.9837 9.20341C20.2876 9.1271 23.1074 11.9096 23.1429 14.2997ZM21.4887 14.3106C21.5133 12.8526 19.5615 10.8877 18.0465 10.8386C16.6297 10.795 14.5797 12.7899 14.5306 14.2616C14.4814 15.7496 16.5642 17.7963 18.0656 17.7364C19.6352 17.671 21.4614 15.8423 21.4887 14.3106Z" fill="#B40B0B"/>
<path d="M18.0656 42.9946C14.5633 42.9946 11.0583 43 7.55601 42.9864C6.98276 42.9837 6.16111 43.1336 6.27303 42.2178C6.30579 41.948 7.10287 41.5856 7.55055 41.5828C14.5578 41.542 21.5651 41.542 28.5697 41.5856C29.0037 41.5883 29.435 42.0325 29.8663 42.2696C29.4377 42.5122 29.0092 42.9564 28.5751 42.9646C25.0728 43.0218 21.5678 42.9946 18.0656 42.9946Z" fill="#B40B0B"/>
<path d="M11.8581 9.66941C11.4295 9.1516 11.1757 8.84364 10.9191 8.53296C11.2685 8.30676 11.6261 7.89523 11.97 7.90341C12.2976 7.91159 12.617 8.35581 12.9391 8.60927C12.6497 8.89542 12.3576 9.18158 11.8581 9.66941Z" fill="#B40B0B"/>
<path d="M24.2048 9.66671C23.6862 9.18433 23.3859 8.90362 23.0829 8.62291C23.4077 8.36673 23.7244 7.91706 24.0574 7.90616C24.4041 7.89253 24.7671 8.30133 25.1247 8.5248C24.8736 8.83549 24.6252 9.14617 24.2048 9.66671Z" fill="#B40B0B"/>
<path d="M20.1101 28.7521C20.132 29.864 19.2284 30.807 18.0983 30.8533C16.9463 30.9024 15.9281 29.9212 15.9363 28.7684C15.9445 27.6729 16.8863 26.7544 18.0191 26.7408C19.1492 26.7326 20.0883 27.632 20.1101 28.7521Z" fill="#B40B0B"/>
<path d="M17.9918 16.3873C16.9108 16.3737 15.939 15.3899 15.9363 14.3079C15.9336 13.2124 16.878 12.2694 17.9945 12.253C19.1765 12.2367 20.1565 13.2178 20.1074 14.3733C20.0609 15.4744 19.0892 16.3982 17.9918 16.3873Z" fill="#B40B0B"/>
</g>
<defs>
<clipPath id="clip0_92_40">
<rect width="36" height="43" fill="white"/>
</clipPath>
</defs>
</svg>
